<svg width="160" height="160" viewBox="0 0 160 160" fill="none" xmlns="http://www.w3.org/2000/svg">
<rect width="160" height="160" rx="10" fill="#FF1919"/>
<path d="M76.1326 74.152C76.1326 76.104 75.6846 77.896 74.7886 79.528C73.8926 81.128 72.5166 82.424 70.6606 83.416C68.8046 84.408 66.5006 84.904 63.7486 84.904H58.6606V97H50.4526V63.304H63.7486C66.4366 63.304 68.7086 63.768 70.5646 64.696C72.4206 65.624 73.8126 66.904 74.7406 68.536C75.6686 70.168 76.1326 72.04 76.1326 74.152ZM63.1246 78.376C64.6926 78.376 65.8606 78.008 66.6286 77.272C67.3966 76.536 67.7806 75.496 67.7806 74.152C67.7806 72.808 67.3966 71.768 66.6286 71.032C65.8606 70.296 64.6926 69.928 63.1246 69.928H58.6606V78.376H63.1246ZM110.55 97H102.342L88.6137 76.216V97H80.4057V63.304H88.6137L102.342 84.184V63.304H110.55V97Z" fill="white"/>
</svg>
